<?xml version="1.0" encoding="utf-8"?>
<!-- Generator: Adobe Illustrator 19.0.0, SVG Export Plug-In . SVG Version: 6.00 Build 0)  -->
<svg version="1.1" id="Layer_1" xmlns="http://www.w3.org/2000/svg" xmlns:xlink="http://www.w3.org/1999/xlink" x="0px" y="0px"
	 viewBox="-597 383 28 28" style="enable-background:new -597 383 28 28;" xml:space="preserve">
<style type="text/css">
	.st0{fill:#06BCC2;}
</style>
<path id="XMLID_626_" class="st0" d="M-583,383c-7.7,0-14,6.3-14,14s6.3,14,14,14s14-6.3,14-14S-575.3,383-583,383z M-576.8,394.1
	l-7.7,7.4c-0.2,0.1-0.3,0.2-0.6,0.2c0,0,0,0-0.1,0c-0.2,0-0.4-0.1-0.6-0.3l-3.2-4.2c-0.3-0.3-0.2-0.8,0.2-1.1
	c0.4-0.3,0.9-0.2,1.1,0.2l2.6,3.5l7.1-6.8c0.3-0.3,0.8-0.3,1.1,0C-576.4,393.3-576.4,393.8-576.8,394.1z"/>
</svg>
