<?xml version="1.0" encoding="utf-8"?>
<!-- Generator: Adobe Illustrator 19.0.0, SVG Export Plug-In . SVG Version: 6.00 Build 0)  -->
<svg version="1.1" id="Layer_1" xmlns="http://www.w3.org/2000/svg" xmlns:xlink="http://www.w3.org/1999/xlink" x="0px" y="0px"
	 viewBox="-597 383 28 28" style="enable-background:new -597 383 28 28;" xml:space="preserve">
<style type="text/css">
	.st0{fill:#B26659;}
</style>
<path id="XMLID_688_" class="st0" d="M-583,383c-7.7,0-14,6.3-14,14c0,7.7,6.3,14,14,14s14-6.3,14-14C-569,389.3-575.3,383-583,383z
	 M-577.8,401c0.3,0.3,0.3,0.8,0,1.1c-0.2,0.2-0.4,0.2-0.6,0.2c-0.2,0-0.4-0.1-0.6-0.2l-4-4l-4,4c-0.2,0.2-0.4,0.2-0.6,0.2
	c-0.2,0-0.4-0.1-0.6-0.2c-0.3-0.3-0.3-0.8,0-1.1l4-4l-4-4c-0.3-0.3-0.3-0.8,0-1.1s0.8-0.3,1.1,0l4,4l4-4c0.3-0.3,0.8-0.3,1.1,0
	c0.3,0.3,0.3,0.8,0,1.1l-4,4L-577.8,401z"/>
</svg>
