<?xml version="1.0" encoding="utf-8"?>
<!-- Generator: Adobe Illustrator 19.0.0, SVG Export Plug-In . SVG Version: 6.00 Build 0)  -->
<svg version="1.1" id="Layer_1" xmlns="http://www.w3.org/2000/svg" xmlns:xlink="http://www.w3.org/1999/xlink" x="0px" y="0px"
	 viewBox="-5 7 28 28" style="enable-background:new -5 7 28 28;" xml:space="preserve">
<style type="text/css">
	.st0{fill:#242424;}
</style>
<path class="st0" d="M19.6,11.8l-9.9,9.9l9.2,9.2c0.2,0.2,0.2,0.5,0,0.7c-0.1,0.1-0.2,0.1-0.4,0.1s-0.3,0-0.4-0.1L9,22.4l-9.2,9.2
	c-0.1,0.1-0.2,0.1-0.4,0.1s-0.3,0-0.4-0.1c-0.2-0.2-0.2-0.5,0-0.7l9.2-9.2l-9.9-9.9c-0.2-0.2-0.2-0.5,0-0.7s0.5-0.2,0.7,0L9,21
	l9.9-9.9c0.2-0.2,0.5-0.2,0.7,0S19.8,11.6,19.6,11.8z"/>
</svg>
