<?xml version="1.0" encoding="utf-8"?>
<!-- Generator: Adobe Illustrator 19.0.0, SVG Export Plug-In . SVG Version: 6.00 Build 0)  -->
<svg version="1.1" id="Layer_1" xmlns="http://www.w3.org/2000/svg" xmlns:xlink="http://www.w3.org/1999/xlink" x="0px" y="0px"
	 viewBox="0 0 28 28" style="enable-background:new 0 0 28 28;" xml:space="preserve">
<style type="text/css">
	.st0{fill:#242424;}
</style>
<path id="XMLID_10_" class="st0" d="M23.6,6H22V4.4C22,2.4,20.4,1,18.5,1H4.4C2.4,1,1,2.4,1,4.4v14.1C1,20.4,2.4,22,4.4,22H6v1.6
	C6,25.6,7.6,27,9.5,27h14.1c1.9,0,3.4-1.4,3.4-3.4V9.5C27,7.6,25.6,6,23.6,6z M4.4,21C3,21,2,19.9,2,18.5V4.4C2,3,3,2,4.4,2h14.1
	C19.9,2,21,3,21,4.4V6H9.5C7.6,6,6,7.6,6,9.5V21H4.4z M21,7v11.5c0,1.4-1.1,2.5-2.5,2.5H7V9.5C7,8.1,8.1,7,9.5,7H21z M26,23.6
	c0,1.4-1,2.4-2.4,2.4H9.5C8.1,26,7,25,7,23.6V22h11.5c1.9,0,3.5-1.6,3.5-3.5V7h1.6C25,7,26,8.1,26,9.5V23.6z"/>
</svg>
