<?xml version="1.0" encoding="utf-8"?>
<!-- Generator: Adobe Illustrator 19.0.0, SVG Export Plug-In . SVG Version: 6.00 Build 0)  -->
<svg version="1.1" id="Layer_1" xmlns="http://www.w3.org/2000/svg" xmlns:xlink="http://www.w3.org/1999/xlink" x="0px" y="0px"
	 viewBox="2 2 24 24" style="enable-background:new 2 2 24 24;" xml:space="preserve">
<style type="text/css">
	.st0{fill:#242424;}
</style>
<g id="XMLID_1_">
	<path class="st0" d="M12,21.5c-0.4,0-0.7-0.1-1-0.4L6.8,17c-0.3-0.3-0.4-0.6-0.4-1c0-0.4,0.1-0.7,0.4-1l12.1-12
		c0.6-0.6,1.5-0.6,2,0l4.2,4.2c0.3,0.3,0.4,0.6,0.4,1s-0.1,0.7-0.4,1L13,21.1C12.7,21.4,12.4,21.5,12,21.5z M19.9,3.3
		c-0.2,0-0.3,0.1-0.4,0.2l-12.1,12c-0.1,0.1-0.2,0.3-0.2,0.4c0,0.2,0.1,0.3,0.2,0.4l4.2,4.2l0,0c0.2,0.2,0.6,0.2,0.9,0l12.1-12
		c0.1-0.1,0.2-0.3,0.2-0.4s-0.1-0.3-0.2-0.4l-4.2-4.2C20.2,3.3,20.1,3.3,19.9,3.3z"/>
</g>
<g id="XMLID_2_">
	<path class="st0" d="M2.9,25.5c-0.1,0-0.2,0-0.3-0.1c-0.1-0.1-0.1-0.3-0.1-0.4l2-7.5c0-0.1,0.1-0.2,0.3-0.3c0.1,0,0.3,0,0.4,0.1
		l5.5,5.5c0.1,0.1,0.1,0.3,0.1,0.4c0,0.1-0.1,0.2-0.3,0.3l-7.6,2C3,25.5,2.9,25.5,2.9,25.5z M5.1,18.4l-1.7,6.2l6.2-1.7L5.1,18.4z"
		/>
</g>
</svg>
