<?xml version="1.0" encoding="utf-8"?>
<!-- Generator: Adobe Illustrator 19.0.0, SVG Export Plug-In . SVG Version: 6.00 Build 0)  -->
<svg version="1.1" id="Layer_1" xmlns="http://www.w3.org/2000/svg" xmlns:xlink="http://www.w3.org/1999/xlink" x="0px" y="0px"
	 viewBox="-285 187 28 28" style="enable-background:new -285 187 28 28;" xml:space="preserve">
<style type="text/css">
	.st0{fill:none;stroke:#242424;stroke-width:1.0411;stroke-linecap:round;stroke-linejoin:round;stroke-miterlimit:10;}
	.st1{fill:none;stroke:#242424;stroke-width:1.0411;stroke-linejoin:round;stroke-miterlimit:10;}
</style>
<path id="XMLID_452_" class="st0" d="M-261.9,197.1c0-5-4-9.1-9.1-9.1s-9.2,4.1-9.2,9.1c0,3.9,2.8,7.3,5.9,8.5v5.8
	c0,0.6,0.7,1.5,1.3,1.5h4.1c0.6,0,0.8-1,0.8-1.5v-5.8C-263.8,204.4-261.9,201-261.9,197.1z"/>
<path id="XMLID_480_" class="st1" d="M-269.8,212.7c0,0.7-0.6,1.3-1.3,1.3s-1.3-0.6-1.3-1.3"/>
<line id="XMLID_477_" class="st0" x1="-271.1" y1="213.5" x2="-271.1" y2="201"/>
<ellipse id="XMLID_476_" transform="matrix(-0.7079 -0.7063 0.7063 -0.7079 -607.5877 149.2659)" class="st0" cx="-272.9" cy="200.3" rx="2.4" ry="1.1"/>
<ellipse id="XMLID_479_" transform="matrix(0.7079 -0.7063 0.7063 0.7079 -220.0852 -131.6088)" class="st0" cx="-269.2" cy="200.3" rx="2.4" ry="1.1"/>
</svg>
