<?xml version="1.0" encoding="utf-8"?>
<!-- Generator: Adobe Illustrator 19.0.0, SVG Export Plug-In . SVG Version: 6.00 Build 0)  -->
<svg version="1.1" id="Layer_1" xmlns="http://www.w3.org/2000/svg" xmlns:xlink="http://www.w3.org/1999/xlink" x="0px" y="0px"
	 viewBox="-385 387 28 28" style="enable-background:new -385 387 28 28;" xml:space="preserve">
<style type="text/css">
	.st0{fill:none;stroke:#FFFFFF;stroke-width:1.0855;stroke-miterlimit:10;}
</style>
<g id="Group">
	<path id="XMLID_15_" class="st0" d="M-368.3,402.5c2.7,0,4.8-2.8,4.8-5.7V396c0-2.9-2.1-4.9-4.8-4.9c-2.7,0-4.8,2.1-4.8,4.9v0.9
		C-373.1,399.8-371,402.5-368.3,402.5z M-360.7,407.4C-360.7,407.4-360.7,407.2-360.7,407.4c0-0.2-0.1-0.4-0.1-0.6l0,0
		c-0.1-0.4-0.3-0.7-0.5-1.1l0,0c-0.4-0.6-1-1.2-2.1-1.7c-0.5-0.3-0.8-0.4-1.1-0.4c-0.5,0-1,0.4-1.8,1.1l0,0l-0.7,0.7
		c0,0-0.8,1.1-1.4,1.1s-1.3-1.1-1.4-1.1l-0.7-0.7l0,0c-0.8-0.7-1.2-1.1-1.8-1.1c-0.3,0-0.6,0.1-1.1,0.4c-1,0.6-1.7,1.2-2.1,1.7l0,0
		l0,0c-0.3,0.3-0.4,0.7-0.5,1.1l0,0c0,0.2-0.1,0.3-0.1,0.5l0,0c0,0.2,0,0.4,0,0.6v4.2c0,1.4,0.5,1.9,1.9,1.9h11.6
		c1.4,0,1.9-0.5,1.9-1.9v-4.2C-360.6,407.8-360.6,407.5-360.7,407.4z"/>
</g>
<g id="Group_1_">
	<path id="XMLID_7_" class="st0" d="M-369.2,391c-0.7-1.8-2.4-3-4.5-3c-2.7,0-4.8,2.1-4.8,4.9v0.9c0,2.9,2.1,5.7,4.8,5.7
		c0.4,0,0.7-0.1,1.1-0.2 M-373.7,403.9c0,0-1.3-1.5-1.4-1.5l-0.7-0.7l0,0c-0.8-0.7-1.2-1.1-1.8-1.1c-0.3,0-0.6,0.1-1.1,0.4
		c-1,0.6-1.7,1.2-2.1,1.7l0,0l0,0c-0.3,0.3-0.4,0.7-0.5,1.1l0,0c0,0.2-0.1,0.3-0.1,0.5l0,0c0,0.2,0,0.4,0,0.6v4.2
		c0,1.4,0.5,1.9,1.9,1.9h3.4"/>
</g>
</svg>
