<?xml version="1.0" encoding="utf-8"?>
<!-- Generator: Adobe Illustrator 19.0.0, SVG Export Plug-In . SVG Version: 6.00 Build 0)  -->
<svg version="1.1" id="Layer_1" xmlns="http://www.w3.org/2000/svg" xmlns:xlink="http://www.w3.org/1999/xlink" x="0px" y="0px"
	 viewBox="-285 187 28 28" style="enable-background:new -285 187 28 28;" xml:space="preserve">
<style type="text/css">
	.st0{fill:none;stroke:#242424;stroke-width:0.8785;stroke-linecap:round;stroke-linejoin:round;stroke-miterlimit:10;}
</style>
<path id="XMLID_85_" class="st0" d="M-261.8,190c-0.4-0.4-1.3-0.4-1.7,0l-4.9,4.9c-0.4,0.4-0.4,1.2,0,1.6l2.2,2.2
	c0,0-1.8,2.8-3.2,4.1c-1.3,1.3-4.8,3.9-4.8,3.8l-2.2-2.2c-0.4-0.4-0.5-1.1-1-0.7l-4.9,4.9c-0.4,0.4-0.4,1.2,0.1,1.6
	c0,0,0.7,0.7,0.9,0.9c3,3,10.1,0.8,15.7-4.7c5.5-5.5,7.8-12.5,4.8-15.6C-261.2,190.7-261.8,190-261.8,190z"/>
</svg>
