<?xml version="1.0" encoding="utf-8"?>
<!-- Generator: Adobe Illustrator 19.0.0, SVG Export Plug-In . SVG Version: 6.00 Build 0)  -->
<svg version="1.1" id="Layer_1" xmlns="http://www.w3.org/2000/svg" xmlns:xlink="http://www.w3.org/1999/xlink" x="0px" y="0px"
	 viewBox="-285 187 28 28" style="enable-background:new -285 187 28 28;" xml:space="preserve">
<style type="text/css">
	.st0{fill:none;stroke:#242424;stroke-width:1.0855;stroke-miterlimit:10;}
</style>
<g id="Group">
	<path id="XMLID_15_" class="st0" d="M-268.3,202.5c2.7,0,4.8-2.8,4.8-5.7v-0.9c0-2.9-2.1-4.9-4.8-4.9c-2.7,0-4.8,2.1-4.8,4.9v0.9
		C-273.1,199.7-271,202.5-268.3,202.5z M-260.7,207.3C-260.7,207.3-260.7,207.2-260.7,207.3c0-0.2-0.1-0.4-0.1-0.6c0,0,0,0,0,0
		c-0.1-0.4-0.3-0.7-0.5-1.1v0c-0.4-0.6-1-1.2-2.1-1.7c-0.5-0.3-0.8-0.4-1.1-0.4c-0.5,0-1,0.4-1.8,1.1h0l-0.7,0.7
		c0,0-0.8,1.1-1.4,1.1c-0.6,0-1.3-1.1-1.4-1.1l-0.7-0.7h0c-0.8-0.7-1.2-1.1-1.8-1.1c-0.3,0-0.6,0.1-1.1,0.4c-1,0.6-1.7,1.2-2.1,1.7
		l0,0c0,0,0,0,0,0c-0.3,0.3-0.4,0.7-0.5,1.1c0,0,0,0,0,0c0,0.2-0.1,0.3-0.1,0.5c0,0,0,0,0,0c0,0.2,0,0.4,0,0.6c0,0,0,4.2,0,4.2
		c0,1.4,0.5,1.9,1.9,1.9h11.6c1.4,0,1.9-0.5,1.9-1.9c0,0,0-4.2,0-4.2C-260.6,207.7-260.6,207.5-260.7,207.3z"/>
</g>
<g id="Group_1_">
	<path id="XMLID_7_" class="st0" d="M-269.2,191c-0.7-1.8-2.4-3-4.5-3c-2.7,0-4.8,2.1-4.8,4.9v0.9c0,2.9,2.1,5.7,4.8,5.7
		c0.4,0,0.7-0.1,1.1-0.2 M-273.7,203.8c0,0-1.3-1.5-1.4-1.5l-0.7-0.7h0c-0.8-0.7-1.2-1.1-1.8-1.1c-0.3,0-0.6,0.1-1.1,0.4
		c-1,0.6-1.7,1.2-2.1,1.7l0,0c0,0,0,0,0,0c-0.3,0.3-0.4,0.7-0.5,1.1c0,0,0,0,0,0c0,0.2-0.1,0.3-0.1,0.5c0,0,0,0,0,0
		c0,0.2,0,0.4,0,0.6c0,0,0,4.2,0,4.2c0,1.4,0.5,1.9,1.9,1.9h3.4"/>
</g>
</svg>
