<?xml version="1.0" encoding="utf-8"?>
<!-- Generator: Adobe Illustrator 19.0.0, SVG Export Plug-In . SVG Version: 6.00 Build 0)  -->
<svg version="1.1" id="Layer_1" xmlns="http://www.w3.org/2000/svg" xmlns:xlink="http://www.w3.org/1999/xlink" x="0px" y="0px"
	 viewBox="-5 7 28 28" style="enable-background:new -5 7 28 28;" xml:space="preserve">
<style type="text/css">
	.st0{fill:#242424;}
</style>
<path id="XMLID_297_" class="st0" d="M16,7h-3.6c-4.1,0-6.7,2.7-6.7,6.9v3.2H2c-0.3,0-0.6,0.3-0.6,0.6v4.6c0,0.3,0.3,0.6,0.6,0.6
	h3.7v11.6c0,0.3,0.3,0.6,0.6,0.6H11c0.3,0,0.6-0.3,0.6-0.6V22.8h4.3c0.3,0,0.6-0.3,0.6-0.6v-4.6c0-0.2-0.1-0.3-0.2-0.4
	C16.2,17.1,16,17,15.9,17h-4.3v-2.6c0-1.3,0.3-2,2-2H16c0.3,0,0.6-0.3,0.6-0.6V7.6C16.6,7.3,16.3,7,16,7z"/>
</svg>
