<?xml version="1.0" encoding="utf-8"?>
<!-- Generator: Adobe Illustrator 19.0.0, SVG Export Plug-In . SVG Version: 6.00 Build 0)  -->
<svg version="1.1" id="Layer_1" xmlns="http://www.w3.org/2000/svg" xmlns:xlink="http://www.w3.org/1999/xlink" x="0px" y="0px"
	 viewBox="-5 7 28 28" style="enable-background:new -5 7 28 28;" xml:space="preserve">
<style type="text/css">
	.st0{fill:#242424;}
</style>
<g id="XMLID_43_">
	<g id="XMLID_44_">
		<rect id="XMLID_12_" x="-4.7" y="16.3" class="st0" width="6" height="18.1"/>
		<path id="XMLID_10_" class="st0" d="M21.1,18c-1.3-1.4-2.9-2.1-5-2.1c-0.8,0-1.5,0.1-2.1,0.3c-0.6,0.2-1.2,0.5-1.6,0.8
			s-0.8,0.7-1,0.9c-0.2,0.3-0.5,0.6-0.7,1v-2.6h-6v0.9c0,0.6,0,2.4,0,5.4s0,6.9,0,11.8h6V24.3c0-0.6,0.1-1.1,0.2-1.5
			c0.3-0.6,0.6-1.1,1.2-1.6c0.5-0.4,1.2-0.6,1.9-0.6c1,0,1.8,0.4,2.3,1.1s0.7,1.7,0.7,3v9.7h6V24C23,21.4,22.4,19.3,21.1,18z"/>
		<path id="XMLID_6_" class="st0" d="M-1.6,7.6c-1,0-1.8,0.3-2.5,0.9C-4.7,9.1-5,9.8-5,10.7s0.3,1.6,0.9,2.2s1.4,0.9,2.4,0.9l0,0
			c1,0,1.8-0.3,2.5-0.9c0.6-0.6,0.9-1.3,0.9-2.2S1.4,9.1,0.8,8.5C0.2,7.9-0.6,7.6-1.6,7.6z"/>
	</g>
</g>
</svg>
