<?xml version="1.0" encoding="utf-8"?>
<!-- Generator: Adobe Illustrator 19.0.0, SVG Export Plug-In . SVG Version: 6.00 Build 0)  -->
<svg version="1.1" id="Layer_1" xmlns="http://www.w3.org/2000/svg" xmlns:xlink="http://www.w3.org/1999/xlink" x="0px" y="0px"
	 viewBox="-5 7 28 28" style="enable-background:new -5 7 28 28;" xml:space="preserve">
<style type="text/css">
	.st0{fill:#242424;}
</style>
<path id="XMLID_356_" class="st0" d="M23,12.3c-1,0.5-2.1,0.8-3.3,0.9c1.2-0.7,2.1-1.8,2.5-3.2c-1.1,0.7-2.3,1.1-3.6,1.4
	c-1-1.1-2.5-1.8-4.2-1.8c-3.2,0-5.7,2.6-5.7,5.7c0,0.4,0.1,0.9,0.1,1.3C4,16.4-0.2,14.2-3,10.7c-0.5,0.8-0.8,1.8-0.8,2.9
	c0,2,1,3.8,2.6,4.8c-0.9,0-1.8-0.3-2.6-0.7v0.1c0,2.8,2,5.1,4.6,5.6c-0.5,0.1-1,0.2-1.5,0.2c-0.4,0-0.7,0-1.1-0.1
	c0.7,2.3,2.9,3.9,5.4,4C1.6,29-0.8,30-3.5,30c-0.5,0-0.9,0-1.4-0.1c2.5,1.6,5.6,2.6,8.8,2.6c10.6,0,16.3-8.8,16.3-16.3v-0.7
	C21.3,14.5,22.2,13.5,23,12.3z"/>
</svg>
