<?xml version="1.0" encoding="utf-8"?>
<!-- Generator: Adobe Illustrator 19.0.0, SVG Export Plug-In . SVG Version: 6.00 Build 0)  -->
<svg version="1.1" id="Layer_1" xmlns="http://www.w3.org/2000/svg" xmlns:xlink="http://www.w3.org/1999/xlink" x="0px" y="0px"
	 viewBox="0 0 28 28" style="enable-background:new 0 0 28 28;" xml:space="preserve">
<style type="text/css">
	.st0{fill:#242424;}
</style>
<path class="st0" d="M21.4,19.1c-1.6,0-2.9,0.9-3.7,2.2l-9.3-5.4c0.3-0.6,0.5-1.2,0.5-1.9c0-0.6-0.1-1.1-0.3-1.7L17.8,7
	c0.7,1.2,2.1,2,3.5,2c2.3,0,4.2-1.9,4.2-4.2s-1.9-4.2-4.2-4.2c-2.3,0-4.2,1.9-4.2,4.2c0,0.5,0.1,0.9,0.2,1.4L8,11.5
	c-0.8-1-2-1.7-3.4-1.7c-2.3,0-4.2,1.9-4.2,4.2c0,2.3,1.9,4.2,4.2,4.2c1.3,0,2.4-0.6,3.2-1.5l9.5,5.5c-0.1,0.4-0.2,0.7-0.2,1.1
	c0,2.3,1.9,4.2,4.2,4.2c2.3,0,4.2-1.9,4.2-4.2C25.6,21,23.7,19.1,21.4,19.1z M21.4,1.5c1.8,0,3.2,1.4,3.2,3.2s-1.4,3.2-3.2,3.2
	s-3.2-1.4-3.2-3.2S19.6,1.5,21.4,1.5z M4.6,17.2c-1.8,0-3.2-1.4-3.2-3.2s1.4-3.2,3.2-3.2c1.8,0,3.2,1.4,3.2,3.2S6.4,17.2,4.6,17.2z
	 M21.4,26.5c-1.8,0-3.2-1.4-3.2-3.2s1.4-3.2,3.2-3.2s3.2,1.4,3.2,3.2S23.1,26.5,21.4,26.5z"/>
</svg>
