<?xml version="1.0" encoding="utf-8"?>
<!-- Generator: Adobe Illustrator 19.0.0, SVG Export Plug-In . SVG Version: 6.00 Build 0)  -->
<svg version="1.1" id="Layer_1" xmlns="http://www.w3.org/2000/svg" xmlns:xlink="http://www.w3.org/1999/xlink" x="0px" y="0px"
	 viewBox="0 0 28 28" style="enable-background:new 0 0 28 28;" xml:space="preserve">
<style type="text/css">
	.st0{fill:#FFFFFF;}
</style>
<path id="XMLID_297_" class="st0" d="M21,0l-3.6,0c-4.1,0-6.7,2.7-6.7,6.9v3.2H7c-0.3,0-0.6,0.3-0.6,0.6v4.6c0,0.3,0.3,0.6,0.6,0.6
	h3.7v11.6c0,0.3,0.3,0.6,0.6,0.6H16c0.3,0,0.6-0.3,0.6-0.6V15.8h4.3c0.3,0,0.6-0.3,0.6-0.6l0-4.6c0-0.2-0.1-0.3-0.2-0.4
	c-0.1-0.1-0.3-0.2-0.4-0.2h-4.3V7.4c0-1.3,0.3-2,2-2l2.4,0c0.3,0,0.6-0.3,0.6-0.6V0.6C21.6,0.3,21.3,0,21,0z"/>
</svg>
