<?xml version="1.0" encoding="utf-8"?>
<!-- Generator: Adobe Illustrator 19.0.0, SVG Export Plug-In . SVG Version: 6.00 Build 0)  -->
<svg version="1.1" id="Layer_1" xmlns="http://www.w3.org/2000/svg" xmlns:xlink="http://www.w3.org/1999/xlink" x="0px" y="0px"
	 viewBox="-597 383 28 28" style="enable-background:new -597 383 28 28;" xml:space="preserve">
<style type="text/css">
	.st0{fill:#FFFFFF;}
</style>
<g id="XMLID_43_">
	<g id="XMLID_44_">
		<rect id="XMLID_12_" x="-596.7" y="392.3" class="st0" width="6" height="18.1"/>
		<path id="XMLID_10_" class="st0" d="M-570.9,394c-1.3-1.4-2.9-2.1-5-2.1c-0.8,0-1.5,0.1-2.1,0.3c-0.6,0.2-1.2,0.5-1.6,0.8
			c-0.4,0.3-0.8,0.7-1,0.9c-0.2,0.3-0.5,0.6-0.7,1v-2.6h-6v0.9c0,0.6,0,2.4,0,5.4s0,6.9,0,11.8h6v-10.1c0-0.6,0.1-1.1,0.2-1.5
			c0.3-0.6,0.6-1.1,1.2-1.6c0.5-0.4,1.2-0.6,1.9-0.6c1,0,1.8,0.4,2.3,1.1c0.5,0.7,0.7,1.7,0.7,3v9.7h6V400
			C-569,397.4-569.6,395.3-570.9,394z"/>
		<path id="XMLID_6_" class="st0" d="M-593.6,383.6c-1,0-1.8,0.3-2.5,0.9c-0.6,0.6-0.9,1.3-0.9,2.2c0,0.9,0.3,1.6,0.9,2.2
			c0.6,0.6,1.4,0.9,2.4,0.9l0,0c1,0,1.8-0.3,2.5-0.9c0.6-0.6,0.9-1.3,0.9-2.2c0-0.9-0.3-1.6-0.9-2.2
			C-591.8,383.9-592.6,383.6-593.6,383.6z"/>
	</g>
</g>
</svg>
