<?xml version="1.0" encoding="utf-8"?>
<!-- Generator: Adobe Illustrator 19.0.0, SVG Export Plug-In . SVG Version: 6.00 Build 0)  -->
<svg version="1.1" id="Layer_1" xmlns="http://www.w3.org/2000/svg" xmlns:xlink="http://www.w3.org/1999/xlink" x="0px" y="0px"
	 viewBox="-5 7 28 28" style="enable-background:new -5 7 28 28;" xml:space="preserve">
<style type="text/css">
	.st0{fill:none;stroke:#242424;stroke-linecap:round;stroke-linejoin:round;stroke-miterlimit:10;}
</style>
<path id="XMLID_356_" class="st0" d="M22.6,12.6c-1,0.5-2,0.8-3.2,0.9c1.2-0.7,2-1.7,2.4-3.1c-1.1,0.7-2.2,1.1-3.5,1.4
	c-1-1.1-2.4-1.7-4.1-1.7c-3.1,0-5.5,2.5-5.5,5.5c0,0.4,0.1,0.9,0.1,1.3C4.2,16.6,0.1,14.4-2.6,11c-0.5,0.8-0.8,1.7-0.8,2.8
	c0,1.9,1,3.7,2.5,4.6c-0.9,0-1.7-0.3-2.5-0.7v0.1c0,2.7,1.9,4.9,4.5,5.4c-0.5,0.1-1,0.2-1.5,0.2c-0.4,0-0.7,0-1.1-0.1
	c0.7,2.2,2.8,3.8,5.2,3.9c-1.9,1.4-4.3,2.4-6.9,2.4c-0.5,0-0.9,0-1.4-0.1c2.4,1.5,5.4,2.5,8.5,2.5c10.3,0,15.8-8.5,15.8-15.8v-0.7
	C20.9,14.7,21.8,13.8,22.6,12.6z"/>
</svg>
