<?xml version="1.0" encoding="utf-8"?>
<!-- Generator: Adobe Illustrator 19.0.0, SVG Export Plug-In . SVG Version: 6.00 Build 0)  -->
<svg version="1.1" id="Layer_1" xmlns="http://www.w3.org/2000/svg" xmlns:xlink="http://www.w3.org/1999/xlink" x="0px" y="0px"
	 viewBox="-5 7 28 28" style="enable-background:new -5 7 28 28;" xml:space="preserve">
<style type="text/css">
	.st0{fill:none;stroke:#242424;stroke-miterlimit:10;}
</style>
<path id="XMLID_297_" class="st0" d="M15.7,7.6h-3.4c-3.9,0-6.4,2.6-6.4,6.6v3.1H2.3c-0.3,0-0.6,0.3-0.6,0.6v4.4
	c0,0.3,0.3,0.6,0.6,0.6h3.5V34c0,0.3,0.3,0.6,0.6,0.6h4.5c0.3,0,0.6-0.3,0.6-0.6V22.7h4.1c0.3,0,0.6-0.3,0.6-0.6v-4.4
	c0-0.2-0.1-0.3-0.2-0.4c-0.1-0.1-0.3-0.2-0.4-0.2h-4.1v-2.5c0-1.2,0.3-1.9,1.9-1.9h2.3c0.3,0,0.6-0.3,0.6-0.6v-4
	C16.3,7.8,16,7.6,15.7,7.6z"/>
</svg>
