<?xml version="1.0" encoding="utf-8"?>
<!-- Generator: Adobe Illustrator 19.0.0, SVG Export Plug-In . SVG Version: 6.00 Build 0)  -->
<svg version="1.1" id="Layer_1" xmlns="http://www.w3.org/2000/svg" xmlns:xlink="http://www.w3.org/1999/xlink" x="0px" y="0px"
	 viewBox="-785 787 28 28" style="enable-background:new -785 787 28 28;" xml:space="preserve">
<style type="text/css">
	.st0{fill:#06BCC2;}
</style>
<g id="XMLID_32_">
	<path id="XMLID_24_" class="st0" d="M-771,796.3c-2.6,0-4.7,2.1-4.7,4.7s2.1,4.7,4.7,4.7s4.7-2.1,4.7-4.7S-768.4,796.3-771,796.3z"
		/>
	<path id="XMLID_33_" class="st0" d="M-765.2,787h-11.6c-4.5,0-8.2,3.7-8.2,8.2v11.6c0,4.5,3.7,8.2,8.2,8.2h11.6
		c4.5,0,8.2-3.7,8.2-8.2v-11.6C-757,790.7-760.7,787-765.2,787z M-771,808.2c-4,0-7.2-3.3-7.2-7.2s3.2-7.2,7.2-7.2s7.2,3.3,7.2,7.2
		S-767,808.2-771,808.2z M-763.1,795c-1,0-1.7-0.8-1.7-1.7s0.8-1.7,1.7-1.7c1,0,1.7,0.8,1.7,1.7S-762.2,795-763.1,795z"/>
</g>
</svg>
