<?xml version="1.0" encoding="utf-8"?>
<!-- Generator: Adobe Illustrator 19.0.0, SVG Export Plug-In . SVG Version: 6.00 Build 0)  -->
<svg version="1.1" id="Layer_1" xmlns="http://www.w3.org/2000/svg" xmlns:xlink="http://www.w3.org/1999/xlink" x="0px" y="0px"
	 viewBox="-5 7 28 28" style="enable-background:new -5 7 28 28;" xml:space="preserve">
<style type="text/css">
	.st0{fill:none;stroke:#242424;stroke-linecap:round;stroke-linejoin:round;stroke-miterlimit:10;}
</style>
<g id="XMLID_43_">
	<g id="XMLID_44_">
		<rect id="XMLID_12_" x="-2.9" y="16.9" class="st0" width="5.2" height="15.7"/>
		<path id="XMLID_10_" class="st0" d="M19.5,18.4c-1.1-1.2-2.5-1.8-4.3-1.8c-0.7,0-1.3,0.1-1.8,0.3c-0.5,0.2-1,0.4-1.4,0.7
			c-0.3,0.3-0.7,0.6-0.9,0.8c-0.2,0.3-0.4,0.5-0.6,0.9v-2.3H5.3v0.8c0,0.5,0,2.1,0,4.7s0,6,0,10.2h5.2v-8.8c0-0.5,0.1-1,0.2-1.3
			c0.3-0.5,0.5-1,1-1.4c0.4-0.3,1-0.5,1.7-0.5c0.9,0,1.6,0.3,2,1c0.4,0.6,0.6,1.5,0.6,2.6v8.4h5.2v-9C21.2,21.3,20.7,19.5,19.5,18.4
			z"/>
		<path id="XMLID_6_" class="st0" d="M-0.2,9.4c-0.9,0-1.6,0.3-2.2,0.8c-0.5,0.5-0.8,1.1-0.8,1.9c0,0.8,0.3,1.4,0.8,1.9
			c0.5,0.5,1.2,0.8,2.1,0.8l0,0c0.9,0,1.6-0.3,2.2-0.8c0.5-0.5,0.8-1.1,0.8-1.9c0-0.8-0.3-1.4-0.8-1.9C1.3,9.6,0.7,9.4-0.2,9.4z"/>
	</g>
</g>
</svg>
