<?xml version="1.0" encoding="utf-8"?>
<!-- Generator: Adobe Illustrator 19.0.0, SVG Export Plug-In . SVG Version: 6.00 Build 0)  -->
<svg version="1.1" id="Layer_1" xmlns="http://www.w3.org/2000/svg" xmlns:xlink="http://www.w3.org/1999/xlink" x="0px" y="0px"
	 viewBox="-111 59 28 28" style="enable-background:new -111 59 28 28;" xml:space="preserve">
<style type="text/css">
	.st0{fill:#FFFFFF;}
</style>
<g id="XMLID_262_">
	<path id="XMLID_264_" class="st0" d="M-97,72.1l12.4-8.3c-0.1,0-0.3,0.2-0.5,0.2h-23.9c-0.2,0-0.3-0.2-0.5-0.2L-97,72.1z"/>
	<path id="XMLID_265_" class="st0" d="M-96.7,73.3c-0.1,0.1-0.2,0.1-0.3,0.1c-0.1,0-0.2,0-0.3-0.1l-13.2-9c-0.1,0.2-0.4,0.4-0.4,0.7
		v15.7c0,0.9,1.2,2.3,2.1,2.3h23.9c0.9,0,2.1-1.5,2.1-2.3V65c0-0.2-0.3-0.5-0.4-0.7L-96.7,73.3z"/>
</g>
</svg>
