<?xml version="1.0" encoding="utf-8"?>
<!-- Generator: Adobe Illustrator 19.0.0, SVG Export Plug-In . SVG Version: 6.00 Build 0)  -->
<svg version="1.1" id="Layer_1" xmlns="http://www.w3.org/2000/svg" xmlns:xlink="http://www.w3.org/1999/xlink" x="0px" y="0px"
	 viewBox="6 6 28 28" style="enable-background:new 6 6 28 28;" xml:space="preserve">
<style type="text/css">
	.st0{fill:#242424;}
</style>
<path id="XMLID_1_" class="st0" d="M31.7,10.3c0,0.3-0.2,0.5-0.5,0.5H8.8c-0.3,0-0.5-0.2-0.5-0.5s0.2-0.5,0.5-0.5h10.7V9.7v-3
	c0-0.3,0.2-0.5,0.5-0.5s0.5,0.2,0.5,0.5v3v0.1h10.7C31.5,9.8,31.7,10,31.7,10.3z M20.5,29.7v-16c0-0.3-0.2-0.5-0.5-0.5
	s-0.5,0.2-0.5,0.5v16c0,0.3,0.2,0.5,0.5,0.5S20.5,30,20.5,29.7z M24.5,29.7v-16c0-0.3-0.2-0.5-0.5-0.5s-0.5,0.2-0.5,0.5v16
	c0,0.3,0.2,0.5,0.5,0.5S24.5,30,24.5,29.7z M16.5,29.7v-16c0-0.3-0.2-0.5-0.5-0.5c-0.3,0-0.5,0.2-0.5,0.5v16c0,0.3,0.2,0.5,0.5,0.5
	C16.3,30.2,16.5,30,16.5,29.7z M28,12.4c-0.3,0-0.5,0.2-0.5,0.5V30c0,1.3-1.1,2.8-2.5,2.8H15c-1.4,0-2.5-1.5-2.5-2.8V12.9
	c0-0.3-0.2-0.5-0.5-0.5s-0.5,0.2-0.5,0.5V30c0,1.9,1.6,3.8,3.5,3.8h10c1.9,0,3.5-1.9,3.5-3.8V12.9C28.5,12.6,28.3,12.4,28,12.4z"/>
</svg>
