<?xml version="1.0" encoding="utf-8"?>
<!-- Generator: Adobe Illustrator 19.0.0, SVG Export Plug-In . SVG Version: 6.00 Build 0)  -->
<svg version="1.1" id="Layer_1" xmlns="http://www.w3.org/2000/svg" xmlns:xlink="http://www.w3.org/1999/xlink" x="0px" y="0px"
	 viewBox="-291 383 28 28" style="enable-background:new -291 383 28 28;" xml:space="preserve">
<style type="text/css">
	.st0{fill:#FFFFFF;}
</style>
<path id="XMLID_1_" class="st0" d="M-265.3,387.3c0,0.3-0.2,0.5-0.5,0.5h-22.4c-0.3,0-0.5-0.2-0.5-0.5c0-0.3,0.2-0.5,0.5-0.5h10.7
	v-0.1v-3c0-0.3,0.2-0.5,0.5-0.5s0.5,0.2,0.5,0.5v3v0.1h10.7C-265.5,386.8-265.3,387-265.3,387.3z M-276.5,406.7v-16
	c0-0.3-0.2-0.5-0.5-0.5s-0.5,0.2-0.5,0.5v16c0,0.3,0.2,0.5,0.5,0.5S-276.5,407-276.5,406.7z M-272.5,406.7v-16
	c0-0.3-0.2-0.5-0.5-0.5s-0.5,0.2-0.5,0.5v16c0,0.3,0.2,0.5,0.5,0.5S-272.5,407-272.5,406.7z M-280.5,406.7v-16
	c0-0.3-0.2-0.5-0.5-0.5s-0.5,0.2-0.5,0.5v16c0,0.3,0.2,0.5,0.5,0.5S-280.5,407-280.5,406.7z M-269,389.4c-0.3,0-0.5,0.2-0.5,0.5V407
	c0,1.3-1.1,2.8-2.5,2.8h-10c-1.4,0-2.5-1.5-2.5-2.8v-17.1c0-0.3-0.2-0.5-0.5-0.5s-0.5,0.2-0.5,0.5V407c0,1.9,1.6,3.8,3.5,3.8h10
	c1.9,0,3.5-1.9,3.5-3.8v-17.1C-268.5,389.6-268.7,389.4-269,389.4z"/>
</svg>
