<?xml version="1.0" encoding="utf-8"?>
<!-- Generator: Adobe Illustrator 19.0.0, SVG Export Plug-In . SVG Version: 6.00 Build 0)  -->
<svg version="1.1" id="Layer_1" xmlns="http://www.w3.org/2000/svg" xmlns:xlink="http://www.w3.org/1999/xlink" x="0px" y="0px"
	 viewBox="229 -23 66 74" style="enable-background:new 229 -23 66 74;" xml:space="preserve">
<style type="text/css">
	.st0{fill:#242424;}
</style>
<path class="st0" d="M290.8-6.4l-25.7-14.8c-1-0.6-2.1-0.9-3.2-0.9s-2.2,0.3-3.2,0.9L233.2-6.5c-2,1.1-3.2,3.3-3.2,5.6l0.1,29.6
	c0,2.3,1.2,4.4,3.2,5.5l25.6,14.9c1,0.6,2.1,0.9,3.2,0.9s2.2-0.3,3.2-0.9l25.5-14.8c2-1.1,3.2-3.3,3.2-5.6l-0.1-29.6
	C293.9-3.1,292.7-5.2,290.8-6.4z M289.3,31.7l-25.5,14.8c-0.5,0.3-1.1,0.5-1.7,0.5s-1.2-0.2-1.7-0.5l-25.6-14.9
	c-1-0.6-1.7-1.7-1.7-2.9L233-1c0-1.2,0.6-2.3,1.7-3l25.5-14.7c0.5-0.2,1.1-0.4,1.7-0.4s1.2,0.2,1.7,0.5l25.6,14.9
	c1,0.6,1.7,1.7,1.7,2.9l0.1,29.6C291,30,290.4,31.1,289.3,31.7z"/>
<path class="st0" d="M277.5,5.2c0-0.5-0.3-1-0.7-1.3l-13.3-7.7l0,0l0,0c-0.9-0.5-2.1-0.5-3,0l-13,7.5c-0.9,0.5-1.5,1.5-1.5,2.6v15
	c0,1.1,0.6,2.1,1.5,2.6l13,7.5c0.5,0.3,1,0.4,1.5,0.4s1-0.1,1.4-0.4l0,0l6.9-4l6.2-3.6l0,0l0.2-0.1c0.5-0.3,0.7-0.8,0.7-1.3
	s-0.3-1-0.8-1.3l-12.8-7.4l12.8-7.4C277.2,6.2,277.5,5.7,277.5,5.2z M248,20.7V6.9l11.9,6.9L248,20.7z M275,22.5l-5.5,3.2l-7,4
	c-0.3,0.2-0.7,0.2-1,0L249,22.4l12.9-7.5L275,22.5z M248.9,5.2l12.6-7.3c0.3-0.2,0.7-0.2,1,0L275,5.2l-13,7.5L248.9,5.2z"/>
</svg>
