<?xml version="1.0" encoding="utf-8"?>
<!-- Generator: Adobe Illustrator 19.0.0, SVG Export Plug-In . SVG Version: 6.00 Build 0)  -->
<svg version="1.1" id="Layer_1" xmlns="http://www.w3.org/2000/svg" xmlns:xlink="http://www.w3.org/1999/xlink" x="0px" y="0px"
	 viewBox="0 0 150 150" style="enable-background:new 0 0 150 150;" xml:space="preserve">
<style type="text/css">
	.st0{fill:#242424;}
</style>
<path id="XMLID_7_" class="st0" d="M137.2,108.1l-57.1-33l57.1-33c1.3-0.8,2.1-2.1,2.1-3.7c0-1.5-0.8-2.9-2.1-3.7l-1-0.6l0,0
	L81.3,2.4C78,0.5,74,0.5,70.7,2.4L16,34c-3.3,1.9-5.3,5.4-5.3,9.2l0.1,63.5c0,3.7,2,7.2,5.3,9.1L71,147.6c1.6,0.9,3.5,1.4,5.3,1.4
	c1.7,0,3.4-0.4,4.9-1.2l0,0.1l29.1-16.9l25.9-15l0-0.1l1-0.6c1.3-0.8,2.1-2.1,2.1-3.7C139.3,110.2,138.5,108.8,137.2,108.1z
	 M72.8,6.1c2-1.1,4.4-1.1,6.3,0L134,37.9l0,0l1,0.6L75.9,72.7L16.8,38.6c0.4-0.4,0.8-0.7,1.2-0.9L72.8,6.1z M15.2,107.8
	c-0.1-0.4-0.1-0.8-0.1-1.1l-0.1-63.5c0-0.3,0-0.5,0-0.8l56.7,32.7L15.2,107.8z M73.1,143.9l-54.9-31.8c-0.3-0.2-0.6-0.4-0.9-0.7
	l58.6-33.8l59.2,34.2L108,127.4l-28.6,16.5C77.5,145.1,75.1,145.1,73.1,143.9z"/>
</svg>
