<?xml version="1.0" encoding="utf-8"?>
<!-- Generator: Adobe Illustrator 19.0.0, SVG Export Plug-In . SVG Version: 6.00 Build 0)  -->
<svg version="1.1" id="Layer_1" xmlns="http://www.w3.org/2000/svg" xmlns:xlink="http://www.w3.org/1999/xlink" x="0px" y="0px"
	 viewBox="-56 164 486 74" style="enable-background:new -56 164 486 74;" xml:space="preserve">
<style type="text/css">
	.st0{fill:#242424;}
	.st1{font-family:'Ubuntu-Light';}
	.st2{font-size:60px;}
	.st3{letter-spacing:6;}
	.st4{fill:none;stroke:#242424;stroke-width:2;stroke-miterlimit:10;}
	.st5{fill:none;stroke:#242424;stroke-width:2;stroke-linejoin:round;stroke-miterlimit:10;}
</style>
<text id="XMLID_813_" transform="matrix(1 0 0 1 42.3821 220.2651)" class="st0 st1 st2 st3">BittyCasting</text>
<g id="XMLID_945_">
	<path class="st0" d="M-23.1,167.7L-23.1,167.7c0.6,0,1.2,0.2,1.7,0.5l25.6,14.9c1,0.6,1.7,1.7,1.7,2.9L6,215.6c0,1.2-0.6,2.3-1.7,3
		l-25.5,14.7c-0.5,0.3-1.1,0.5-1.7,0.5c-0.6,0-1.2-0.2-1.7-0.5l-25.6-14.9c-1-0.6-1.7-1.7-1.7-2.9l-0.1-29.6c0-1.2,0.6-2.3,1.7-3
		l25.5-14.7C-24.3,167.9-23.7,167.7-23.1,167.7 M-23.1,164.7c-1.1,0-2.2,0.3-3.2,0.9l-25.5,14.7c-2,1.1-3.2,3.3-3.2,5.6l0.1,29.6
		c0,2.3,1.2,4.4,3.2,5.5l25.6,14.9c1,0.6,2.1,0.9,3.2,0.9c1.1,0,2.2-0.3,3.2-0.9l25.5-14.7c2-1.1,3.2-3.3,3.2-5.6L8.9,186
		c0-2.3-1.2-4.4-3.2-5.5l-25.6-14.9C-20.9,165-22,164.7-23.1,164.7L-23.1,164.7z"/>
</g>
<path id="XMLID_944_" class="st4" d="M-9,209.9l-13,7.5c-0.6,0.4-1.4,0.4-2,0l-13-7.5c-0.6-0.4-1-1-1-1.7l0-15c0-0.7,0.4-1.4,1-1.7
	l13-7.5c0.6-0.4,1.4-0.4,2,0l13,7.5"/>
<path id="XMLID_943_" class="st5" d="M-38,209.3l29.2-16.9c0.3-0.2,0.3-0.7,0-0.9l-13.3-7.7"/>
<path id="XMLID_942_" class="st5" d="M-22,217.5l13.3-7.7c0.3-0.2,0.3-0.7,0-0.9L-38,192.1"/>
</svg>
