<?xml version="1.0" encoding="utf-8"?>
<!-- Generator: Adobe Illustrator 19.0.0, SVG Export Plug-In . SVG Version: 6.00 Build 0)  -->
<svg version="1.1" id="Layer_1" xmlns="http://www.w3.org/2000/svg" xmlns:xlink="http://www.w3.org/1999/xlink" x="0px" y="0px"
	 viewBox="-177 558.5 486 74" style="enable-background:new -177 558.5 486 74;" xml:space="preserve">
<style type="text/css">
	.st0{fill:#242424;}
</style>
<g id="XMLID_9_">
	<path id="XMLID_122_" class="st0" d="M-46.3,596.1c-0.8-0.8-1.6-1.5-2.6-2s-2.1-0.9-3.3-1.2c1.9-0.6,3.4-1.7,4.6-3.3
		c1.1-1.6,1.7-3.5,1.7-5.7c0-2-0.5-3.7-1.4-5.1c-0.9-1.4-2.1-2.5-3.6-3.3s-3.3-1.4-5.3-1.8s-4.2-0.5-6.4-0.5c-0.8,0-1.6,0-2.5,0.1
		c-0.9,0-1.8,0.1-2.8,0.2c-0.9,0.1-2.1,0.2-3,0.4c-0.9,0.1-1.7,0.3-2.7,0.5v40c1,0.2,1.6,0.3,2.4,0.4c0.8,0.1,1.9,0.3,2.8,0.4
		s1.9,0.2,2.8,0.2c0.9,0.1,1.7,0.1,2.4,0.1c6.5,0,11.4-1,14.5-3.1c3.1-2.1,4.7-5.1,4.7-9c0-1.6-0.2-3.1-0.6-4.2
		C-45,597.9-45.6,596.9-46.3,596.1z M-69.5,577c1-0.1,1.8-0.2,2.9-0.3c1-0.1,2.4-0.1,3.9-0.1c1.8,0,3.6,0.1,5.1,0.4s2.9,0.7,4,1.3
		c1.1,0.6,2,1.4,2.6,2.3c0.6,0.9,0.9,2.1,0.9,3.4c0,1.5-0.3,2.8-0.8,3.7c-0.6,1-1.3,1.8-2.3,2.3c-1,0.6-2.1,0.9-3.4,1.2
		c-1.3,0.2-2.7,0.3-4.2,0.3h-8.5V577H-69.5z M-49.4,607.6c-0.8,1.1-1.9,2-3.2,2.6c-1.3,0.6-2.8,1.1-4.6,1.3
		c-1.7,0.2-3.5,0.4-5.4,0.4c-1.2,0-2.8,0-4-0.1c-1.2-0.1-2-0.2-3-0.3v-16h9.3c1.8,0,3.5-0.1,5,0.1c1.5,0.2,2.8,0.6,3.8,1.2
		c1,0.6,1.8,1.4,2.4,2.5c0.6,1.1,0.8,2.4,0.8,4C-48.2,605-48.6,606.4-49.4,607.6z"/>
	<path id="XMLID_125_" class="st0" d="M-27.5,571.6c-0.8,0-1.5,0.3-2,0.8c-0.6,0.5-0.8,1.3-0.8,2.2c0,0.9,0.3,1.6,0.8,2.2
		c0.6,0.5,1.2,0.8,2,0.8s1.5-0.3,2-0.8c0.6-0.5,0.8-1.3,0.8-2.2c0-0.9-0.3-1.6-0.8-2.2C-26.1,571.9-26.7,571.6-27.5,571.6z"/>
	<rect id="XMLID_126_" x="-29.5" y="583.5" class="st0" width="4" height="32"/>
	<path id="XMLID_127_" class="st0" d="M4.8,611.6c-1,0.4-2.3,0.6-4,0.6c-1,0-1.8-0.1-2.6-0.3s-1.5-0.6-2-1.2c-0.6-0.6-1-1.4-1.3-2.5
		s-0.4-2.5-0.4-4.3v-16.4h12v-4h-12v-9.3l-4,0.7v28.6c0,2.1,0.2,3.9,0.5,5.4s0.9,2.8,1.7,3.8s1.8,1.8,3.1,2.3s2.9,0.8,4.8,0.8
		c1.6,0,3.2-0.2,4.6-0.7c1.4-0.5,2.4-0.9,2.9-1.2l-1-3.2C6.6,610.8,5.8,611.2,4.8,611.6z"/>
	<path id="XMLID_128_" class="st0" d="M34,611.6c-1,0.4-2.3,0.6-4,0.6c-1,0-1.8-0.1-2.6-0.3s-1.5-0.6-2-1.2
		c-0.6-0.6-1.1-1.4-1.4-2.5c-0.3-1.1-0.5-2.5-0.5-4.3v-16.4h12v-4h-12v-9.3l-4,0.7v28.6c0,2.1,0.3,3.9,0.6,5.4s0.9,2.8,1.7,3.8
		s1.9,1.8,3.2,2.3s2.9,0.8,4.8,0.8c1.6,0,3.2-0.2,4.6-0.7c1.4-0.5,2.4-0.9,2.9-1.2l-1-3.2C35.8,610.8,35,611.2,34,611.6z"/>
	<path id="XMLID_129_" class="st0" d="M65.6,591.2c-0.5,2.3-1.1,4.6-1.7,6.8c-0.6,2.2-1.2,4.4-1.9,6.6c-0.7,2.2-1.5,4.6-2.4,7
		c-1.2-2.4-2.4-4.8-3.4-7.3s-2-4.9-2.8-7.3c-0.9-2.4-1.6-4.9-2.3-7.1s-1.2-4.5-1.7-6.5h-4.1c0.6,3,1.4,5.5,2.3,8.2
		c0.9,2.7,1.9,5.5,2.9,8.2c1,2.7,2.2,5.4,3.4,8.1c1.2,2.6,2.5,5.2,3.8,7.7c-0.5,1.4-1.1,2.6-1.7,3.5c-0.6,0.9-1.2,1.7-2,2.3
		c-0.7,0.6-1.5,1-2.4,1.2c-0.9,0.2-1.9,0.4-3,0.4c-0.8,0-1.6-0.1-2.3-0.3s-1.2-0.4-1.4-0.5l-0.8,3.2c0.2,0.1,0.7,0.3,1.5,0.5
		c0.8,0.2,1.7,0.4,2.7,0.4c1.8,0,3.3-0.2,4.6-0.6s2.4-1,3.4-1.9c1-0.8,1.9-1.9,2.7-3.2c0.8-1.3,1.6-2.9,2.3-4.7
		c1.9-4.5,3.7-9.8,5.3-15.3s3.1-11.2,4.4-17.2h-3.9C66.7,586.5,66.1,588.9,65.6,591.2z"/>
	<path id="XMLID_130_" class="st0" d="M108.2,611.5c-1.8,0.5-4,0.8-6.6,0.8c-2.4,0-4.5-0.4-6.4-1.3c-1.9-0.8-3.4-2-4.7-3.6
		c-1.3-1.6-2.3-3.4-2.9-5.7c-0.7-2.2-1-4.7-1-7.5c0-2.7,0.3-5.1,1-7.3s1.7-4.1,3-5.7s2.9-2.8,4.9-3.7c1.9-0.9,4.2-1.3,6.8-1.3
		c2.3,0,4.2,0.3,5.7,0.9c1.5,0.6,2.8,1.2,3.8,1.8l1.3-3.5c-0.4-0.2-0.9-0.5-1.6-0.8c-0.7-0.3-1.5-0.6-2.5-0.9s-2.1-0.5-3.4-0.8
		c-1.3-0.2-2.7-0.3-4.3-0.3c-2.5,0-4.9,0.5-7.3,1.4c-2.3,0.9-4.4,2.3-6.1,4.2c-1.8,1.8-3.2,4.1-4.2,6.8c-1.1,2.7-1.6,5.8-1.6,9.3
		s0.5,6.6,1.5,9.3c1,2.7,2.3,5,4,6.8s3.7,3.2,6,4.2s4.8,1.4,7.5,1.4c1.7,0,3.2-0.1,4.6-0.3s2.6-0.4,3.6-0.7s1.9-0.5,2.6-0.8
		s1.2-0.5,1.4-0.7l-1.1-3.5C111.3,610.5,109.9,611,108.2,611.5z"/>
	<path id="XMLID_133_" class="st0" d="M144.2,586.5c-0.9-1-2-1.8-3.5-2.4c-1.4-0.6-3.1-0.9-5.2-0.9c-2,0-3.7,0.1-5.1,0.4
		c-1.4,0.3-2.5,0.6-3.2,0.9l0.5,3.4c0.5-0.2,1.3-0.5,2.5-0.8c1.1-0.3,2.8-0.5,5.1-0.5c1.6,0,2.9,0.2,3.9,0.8c1,0.5,1.7,1.2,2.3,2
		c0.5,0.8,0.7,1.7,0.8,2.8c0.2,1,0,2.1,0,3.1v1.9c0-0.1-0.2-0.2-0.7-0.3c-0.4-0.1-0.8-0.2-1.4-0.3c-0.6-0.1-1.1-0.2-1.7-0.2
		c-0.6-0.1-1.2-0.1-1.7-0.1c-1.9,0-3.6,0.2-5.2,0.5c-1.6,0.4-3,0.9-4.1,1.7c-1.2,0.8-2.1,1.8-2.7,3s-1,2.6-1,4.3
		c0,1.8,0.3,3.2,0.9,4.5c0.6,1.2,1.4,2.2,2.4,3c1,0.8,2.2,1.3,3.6,1.7c1.4,0.4,2.9,0.5,4.5,0.5c1.3,0,2.5-0.1,3.8-0.2
		c1.3-0.1,2.3-0.2,3.3-0.4s1.7-0.3,2.5-0.5c0.8-0.1,1.6-0.3,1.6-0.4v-19.3c0-1.6,0-3.2-0.4-4.6C145.6,588.8,145.1,587.6,144.2,586.5
		z M142.5,611.7c-1,0.2-1.6,0.3-2.7,0.4c-1.1,0.1-2.4,0.2-3.9,0.2c-1.2,0-2.3-0.1-3.3-0.3s-1.8-0.6-2.5-1.1s-1.2-1.1-1.6-1.9
		c-0.4-0.8-0.6-1.8-0.6-2.9c0-1.3,0.3-2.4,0.8-3.2c0.6-0.8,1.3-1.4,2.2-1.9c0.9-0.5,1.8-0.8,2.9-0.9c1.1-0.1,2-0.2,3-0.2
		c1.7,0,2.8,0.1,3.8,0.3s1.9,0.4,1.9,0.6L142.5,611.7L142.5,611.7z"/>
	<path id="XMLID_134_" class="st0" d="M178,601c-0.8-0.7-1.8-1.3-2.9-1.8s-2.2-1-3.4-1.5c-1.2-0.5-2.2-0.9-3.1-1.3
		c-0.9-0.4-1.7-0.8-2.3-1.3c-0.6-0.5-1.1-1-1.4-1.6c-0.3-0.6-0.5-1.3-0.5-2.2c0-0.8,0.2-1.6,0.5-2.1c0.4-0.6,0.8-1.1,1.4-1.4
		c0.6-0.4,1.3-0.7,2.1-0.8c0.8-0.2,1.6-0.3,2.5-0.3c2.2,0,3.9,0.2,5,0.6c1.1,0.4,1.9,0.7,2.4,1l0.9-3.5c-0.6-0.3-1.5-0.6-2.9-1
		c-1.4-0.4-3.1-0.5-5.2-0.5c-3.3,0-5.9,0.8-7.8,2.3c-1.9,1.6-2.9,3.6-2.9,6.1c0,1.3,0.2,2.4,0.7,3.4c0.5,0.9,1.1,1.7,1.9,2.4
		c0.8,0.7,1.7,1.2,2.8,1.7c1,0.5,2.1,1,3.3,1.5c1.4,0.6,2.6,1.1,3.6,1.6c1,0.4,1.8,0.9,2.4,1.4s1,1,1.3,1.6c0.3,0.6,0.4,1.3,0.4,2.2
		c0,1.8-0.7,3-2.2,3.8c-1.5,0.7-3.3,1.1-5.5,1.1c-1.2,0-2.3-0.1-3.3-0.2c-0.9-0.2-1.8-0.3-2.4-0.6c-0.7-0.2-1.2-0.4-1.6-0.6
		c-0.4-0.2-0.7-0.3-0.8-0.4l-1,3.5c0.5,0.2,1.4,0.6,2.9,1c1.5,0.4,3.5,0.7,6.2,0.7c3.6,0,6.5-0.7,8.6-2.2c2.1-1.4,3.2-3.6,3.2-6.4
		c0-1.5-0.3-2.7-0.8-3.7C179.5,602.5,178.9,601.7,178,601z"/>
	<path id="XMLID_135_" class="st0" d="M208.4,611.6c-1,0.4-2.3,0.6-4,0.6c-1,0-1.8-0.1-2.6-0.3c-0.8-0.2-1.5-0.6-2-1.2
		c-0.6-0.6-1.3-1.4-1.6-2.5c-0.3-1.1-0.8-2.5-0.8-4.3v-16.4h13v-4h-13v-9.3l-4,0.7v28.6c0,2.1,0.5,3.9,0.8,5.4s1,2.8,1.8,3.8
		s1.9,1.8,3.2,2.3c1.3,0.5,3,0.8,4.9,0.8c1.6,0,3.2-0.2,4.6-0.7s2.4-0.9,3-1.2l-1-3.2C210.2,610.8,209.4,611.2,208.4,611.6z"/>
	<path id="XMLID_136_" class="st0" d="M225.5,571.6c-0.8,0-1.5,0.3-2,0.8c-0.6,0.5-0.8,1.3-0.8,2.2c0,0.9,0.3,1.6,0.8,2.2
		c0.6,0.5,1.2,0.8,2,0.8s1.5-0.3,2-0.8c0.6-0.5,0.8-1.3,0.8-2.2c0-0.9-0.3-1.6-0.8-2.2C227,571.9,226.3,571.6,225.5,571.6z"/>
	<rect id="XMLID_137_" x="223.5" y="583.5" class="st0" width="4" height="32"/>
	<path id="XMLID_138_" class="st0" d="M265.4,587.3c-0.9-1.3-2.2-2.2-3.8-2.9c-1.6-0.7-3.6-1-5.9-1c-2.8,0-5.4,0.2-7.4,0.6
		c-2,0.4-3.9,0.8-4.9,1.1v30.4h4v-27.7c0-0.2,1.4-0.3,2.8-0.5c1.3-0.2,3-0.3,4.8-0.3c1.7,0,3.2,0.2,4.3,0.6c1.1,0.4,2.1,1.1,2.8,2.1
		c0.7,1,0.9,2.2,1.2,3.7c0.3,1.5,0.1,3.4,0.1,5.6v16.5h4v-17.8c0-2.1,0.1-4.1-0.3-5.8C266.7,590.1,266.4,588.6,265.4,587.3z"/>
	<path id="XMLID_141_" class="st0" d="M303.5,584c-1.7-0.4-3.9-0.6-6.8-0.6c-2.3,0-4.3,0.4-6.1,1.2c-1.8,0.8-3.3,1.9-4.6,3.2
		c-1.3,1.4-2.2,3-2.9,4.9c-0.7,1.9-1,3.9-1,6.1c0,2.7,0.4,5,1.1,6.9c0.8,1.9,1.8,3.5,3,4.6c1.3,1.2,2.7,2.1,4.4,2.6
		c1.7,0.6,3.4,0.8,5.2,0.8c1.1,0,2.1-0.1,3-0.3s1.7-0.4,2.4-0.7c0.7-0.3,0.9-0.5,1.4-0.8s0.7-0.5,0.7-0.7v2c0,3.4-0.5,5.9-2.1,7.3
		c-1.7,1.4-4.1,2.1-7.8,2.1c-1.7,0-3.3-0.2-4.9-0.5c-1.7-0.3-2.9-0.7-3.9-1.1l-0.8,3.5c1.2,0.4,2.6,0.8,4.2,1s3.4,0.5,5.4,0.5
		c4.8,0,8.2-1,10.6-3s3.3-5.3,3.3-9.9v-28C306.5,584.7,305.2,584.3,303.5,584z M303.5,607.8c0,0.7-1.6,1.3-3,1.8
		c-1.5,0.5-2.9,0.8-4.7,0.8c-1.2,0-2.3-0.2-3.5-0.6c-1.2-0.4-2.1-1.1-3-2c-0.9-0.9-1.6-2.1-2.2-3.6s-0.8-3.2-0.8-5.2
		c0-1.8,0.2-3.4,0.7-4.8c0.5-1.5,1.2-2.7,2.1-3.8c0.9-1.1,2-1.9,3.3-2.5c1.3-0.6,2.8-0.9,4.5-0.9c2,0,3.2,0.1,4.3,0.3
		c1.1,0.2,2.3,0.4,2.3,0.6L303.5,607.8L303.5,607.8z"/>
	<path id="XMLID_144_" class="st0" d="M-115,575.2l-25.7-14.8c-1-0.6-2.1-0.9-3.2-0.9c-1.1,0-2.2,0.3-3.2,0.9l-25.5,14.7
		c-2,1.1-3.2,3.3-3.2,5.6l0.1,29.6c0,2.3,1.2,4.4,3.2,5.5l25.6,14.9c1,0.6,2.1,0.9,3.2,0.9c1.1,0,2.2-0.3,3.2-0.9l25.5-14.8
		c2-1.1,3.2-3.3,3.2-5.6l-0.1-29.6C-111.9,578.5-113.1,576.4-115,575.2z M-116.5,613.3l-25.5,14.8c-0.5,0.3-1.1,0.5-1.7,0.5
		c-0.6,0-1.2-0.2-1.7-0.5l-25.6-14.9c-1-0.6-1.7-1.7-1.7-2.9l-0.1-29.7c0-1.2,0.6-2.3,1.7-3l25.5-14.7c0.5-0.2,1.1-0.4,1.7-0.4
		c0.6,0,1.2,0.2,1.7,0.5l25.6,14.9c1,0.6,1.7,1.7,1.7,2.9l0.1,29.6C-114.8,611.6-115.4,612.7-116.5,613.3z"/>
	<path id="XMLID_147_" class="st0" d="M-128.3,586.8c0-0.5-0.3-1-0.7-1.3l-13.3-7.7l0,0l0,0c-0.9-0.5-2.1-0.5-3,0l-13,7.5
		c-0.9,0.5-1.5,1.5-1.5,2.6v15c0,1.1,0.6,2.1,1.5,2.6l13,7.5c0.5,0.3,1,0.4,1.5,0.4s1-0.1,1.4-0.4l0,0l6.9-4l6.2-3.6l0,0l0.2-0.1
		c0.5-0.3,0.7-0.8,0.7-1.3s-0.3-1-0.8-1.3l-12.8-7.4l12.8-7.4C-128.6,587.8-128.3,587.3-128.3,586.8z M-157.8,602.3v-13.8l11.9,6.9
		L-157.8,602.3z M-130.8,604.1l-5.5,3.2l-7,4c-0.3,0.2-0.7,0.2-1,0l-12.5-7.3l12.9-7.5L-130.8,604.1z M-156.9,586.8l12.6-7.3
		c0.3-0.2,0.7-0.2,1,0l12.5,7.3l-13,7.5L-156.9,586.8z"/>
</g>
</svg>
